<svg width="75" height="64" viewBox="0 0 75 64" fill="white" xmlns="http://www.w3.org/2000/svg">
<path d="M47.5 9H27.5C26.9477 9 26.5 9.44772 26.5 10V30C26.5 30.5523 26.9477 31 27.5 31H47.5C48.0523 31 48.5 30.5523 48.5 30V10C48.5 9.44772 48.0523 9 47.5 9Z" stroke="#454545" stroke-width="2" stroke-linecap="round" stroke-linejoin="round"/>
<path d="M43.5 7V11" stroke="#454545" stroke-width="2" stroke-linecap="round" stroke-linejoin="round"/>
<path d="M31.5 7V11" stroke="#454545" stroke-width="2" stroke-linecap="round" stroke-linejoin="round"/>
<path d="M26.5 15H48.5" stroke="#454545" stroke-width="2" stroke-linecap="round" stroke-linejoin="round"/>
<path d="M33 20H36.5L34.5 22.5C34.8289 22.5 35.1526 22.5811 35.4427 22.7361C35.7327 22.8911 35.98 23.1152 36.1628 23.3886C36.3455 23.662 36.458 23.9763 36.4903 24.3035C36.5226 24.6308 36.4737 24.9609 36.348 25.2648C36.2222 25.5687 36.0235 25.8368 35.7694 26.0455C35.5153 26.2543 35.2136 26.3971 34.8911 26.4614C34.5686 26.5257 34.2352 26.5095 33.9205 26.4142C33.6057 26.3189 33.3193 26.1475 33.0866 25.9151" stroke="#454545" stroke-width="2" stroke-linecap="round" stroke-linejoin="round"/>
<path d="M39.5 21.5L41.5 20V26.5" stroke="#454545" stroke-width="2" stroke-linecap="round" stroke-linejoin="round"/>
<path d="M20.596 48C20.404 48 20.252 47.948 20.14 47.844C20.036 47.732 19.984 47.584 19.984 47.4V40.14C19.984 39.956 20.036 39.812 20.14 39.708C20.252 39.596 20.404 39.54 20.596 39.54H25.012C25.196 39.54 25.336 39.584 25.432 39.672C25.536 39.76 25.588 39.884 25.588 40.044C25.588 40.204 25.536 40.328 25.432 40.416C25.336 40.496 25.196 40.536 25.012 40.536H21.196V43.2H24.772C24.956 43.2 25.096 43.244 25.192 43.332C25.296 43.42 25.348 43.544 25.348 43.704C25.348 43.864 25.296 43.988 25.192 44.076C25.096 44.164 24.956 44.208 24.772 44.208H21.196V47.004H25.012C25.396 47.004 25.588 47.168 25.588 47.496C25.588 47.656 25.536 47.78 25.432 47.868C25.336 47.956 25.196 48 25.012 48H20.596ZM31.0235 42.384C31.0715 42.264 31.1395 42.176 31.2275 42.12C31.3235 42.064 31.4235 42.036 31.5275 42.036C31.6795 42.036 31.8115 42.088 31.9235 42.192C32.0435 42.296 32.1035 42.42 32.1035 42.564C32.1035 42.644 32.0875 42.72 32.0555 42.792L29.7635 47.652C29.7075 47.78 29.6195 47.88 29.4995 47.952C29.3875 48.016 29.2675 48.048 29.1395 48.048C29.0115 48.048 28.8875 48.016 28.7675 47.952C28.6555 47.88 28.5715 47.78 28.5155 47.652L26.2235 42.792C26.1915 42.728 26.1755 42.652 26.1755 42.564C26.1755 42.42 26.2395 42.296 26.3675 42.192C26.4955 42.088 26.6395 42.036 26.7995 42.036C27.0315 42.036 27.2035 42.148 27.3155 42.372L29.1755 46.5L31.0235 42.384ZM37.5959 46.524C37.7079 46.524 37.7999 46.568 37.8719 46.656C37.9439 46.744 37.9799 46.856 37.9799 46.992C37.9799 47.224 37.8359 47.42 37.5479 47.58C37.2679 47.74 36.9599 47.864 36.6239 47.952C36.2959 48.04 35.9799 48.084 35.6759 48.084C34.7479 48.084 34.0159 47.816 33.4799 47.28C32.9439 46.736 32.6759 45.996 32.6759 45.06C32.6759 44.46 32.7919 43.928 33.0239 43.464C33.2639 43 33.5959 42.64 34.0199 42.384C34.4519 42.128 34.9399 42 35.4839 42C36.2679 42 36.8879 42.252 37.3439 42.756C37.7999 43.26 38.0279 43.94 38.0279 44.796C38.0279 45.116 37.8839 45.276 37.5959 45.276H33.8879C33.9679 46.516 34.5639 47.136 35.6759 47.136C35.9719 47.136 36.2279 47.096 36.4439 47.016C36.6599 46.936 36.8879 46.832 37.1279 46.704C37.1519 46.688 37.2159 46.656 37.3199 46.608C37.4319 46.552 37.5239 46.524 37.5959 46.524ZM35.5079 42.888C35.0439 42.888 34.6719 43.036 34.3919 43.332C34.1119 43.628 33.9439 44.044 33.8879 44.58H36.9839C36.9599 44.036 36.8199 43.62 36.5639 43.332C36.3159 43.036 35.9639 42.888 35.5079 42.888ZM42.5194 42C43.9194 42 44.6194 42.788 44.6194 44.364V47.484C44.6194 47.668 44.5634 47.812 44.4514 47.916C44.3474 48.012 44.1994 48.06 44.0074 48.06C43.8234 48.06 43.6754 48.008 43.5634 47.904C43.4594 47.8 43.4074 47.66 43.4074 47.484V44.424C43.4074 43.928 43.3074 43.564 43.1074 43.332C42.9154 43.1 42.6114 42.984 42.1954 42.984C41.7074 42.984 41.3154 43.136 41.0194 43.44C40.7234 43.744 40.5754 44.152 40.5754 44.664V47.484C40.5754 47.66 40.5194 47.8 40.4074 47.904C40.3034 48.008 40.1594 48.06 39.9754 48.06C39.7914 48.06 39.6434 48.008 39.5314 47.904C39.4194 47.8 39.3634 47.66 39.3634 47.484V42.6C39.3634 42.432 39.4194 42.296 39.5314 42.192C39.6514 42.08 39.7994 42.024 39.9754 42.024C40.1514 42.024 40.2914 42.076 40.3954 42.18C40.4994 42.284 40.5514 42.42 40.5514 42.588V43.08C40.7434 42.728 41.0114 42.46 41.3554 42.276C41.6994 42.092 42.0874 42 42.5194 42ZM49.1455 47.136C49.3215 47.152 49.4455 47.2 49.5175 47.28C49.5975 47.352 49.6375 47.456 49.6375 47.592C49.6375 47.752 49.5735 47.876 49.4455 47.964C49.3255 48.044 49.1455 48.076 48.9055 48.06L48.5815 48.036C47.9335 47.988 47.4495 47.792 47.1295 47.448C46.8095 47.096 46.6495 46.58 46.6495 45.9V43.08H45.9295C45.5775 43.08 45.4015 42.924 45.4015 42.612C45.4015 42.468 45.4455 42.356 45.5335 42.276C45.6295 42.188 45.7615 42.144 45.9295 42.144H46.6495V40.908C46.6495 40.724 46.7015 40.58 46.8055 40.476C46.9175 40.372 47.0655 40.32 47.2495 40.32C47.4335 40.32 47.5815 40.372 47.6935 40.476C47.8055 40.58 47.8615 40.724 47.8615 40.908V42.144H49.0495C49.2175 42.144 49.3455 42.188 49.4335 42.276C49.5295 42.356 49.5775 42.468 49.5775 42.612C49.5775 42.764 49.5295 42.88 49.4335 42.96C49.3455 43.04 49.2175 43.08 49.0495 43.08H47.8615V45.984C47.8615 46.36 47.9375 46.636 48.0895 46.812C48.2495 46.988 48.4895 47.088 48.8095 47.112L49.1455 47.136ZM52.548 48.084C51.732 48.084 51.064 47.916 50.544 47.58C50.4 47.492 50.296 47.4 50.232 47.304C50.176 47.208 50.148 47.1 50.148 46.98C50.148 46.852 50.184 46.744 50.256 46.656C50.328 46.568 50.42 46.524 50.532 46.524C50.636 46.524 50.8 46.588 51.024 46.716C51.264 46.844 51.496 46.948 51.72 47.028C51.952 47.108 52.24 47.148 52.584 47.148C52.968 47.148 53.268 47.08 53.484 46.944C53.7 46.808 53.808 46.616 53.808 46.368C53.808 46.208 53.764 46.08 53.676 45.984C53.596 45.888 53.452 45.804 53.244 45.732C53.036 45.652 52.728 45.568 52.32 45.48C51.616 45.328 51.108 45.124 50.796 44.868C50.492 44.604 50.34 44.248 50.34 43.8C50.34 43.456 50.44 43.148 50.64 42.876C50.84 42.596 51.116 42.38 51.468 42.228C51.82 42.076 52.22 42 52.668 42C52.988 42 53.3 42.044 53.604 42.132C53.908 42.212 54.176 42.332 54.408 42.492C54.672 42.668 54.804 42.872 54.804 43.104C54.804 43.232 54.764 43.34 54.684 43.428C54.612 43.516 54.524 43.56 54.42 43.56C54.348 43.56 54.276 43.544 54.204 43.512C54.132 43.48 54.036 43.428 53.916 43.356C53.7 43.228 53.496 43.128 53.304 43.056C53.12 42.984 52.888 42.948 52.608 42.948C52.272 42.948 52 43.02 51.792 43.164C51.592 43.308 51.492 43.504 51.492 43.752C51.492 43.976 51.584 44.152 51.768 44.28C51.96 44.4 52.316 44.516 52.836 44.628C53.372 44.74 53.792 44.868 54.096 45.012C54.4 45.156 54.616 45.336 54.744 45.552C54.88 45.76 54.948 46.028 54.948 46.356C54.948 46.876 54.728 47.296 54.288 47.616C53.856 47.928 53.276 48.084 52.548 48.084Z" fill="white"/>
</svg>
