<svg width="75" height="64" viewBox="0 0 75 64" fill="white" xmlns="http://www.w3.org/2000/svg">
<path d="M51.5 32H39.0652L37.5 20L35.9348 32H23.5L37.5 8L51.5 32Z" stroke="#454545" stroke-width="2" stroke-linejoin="round"/>
<path d="M28.548 39.48C28.732 39.48 28.88 39.54 28.992 39.66C29.104 39.772 29.16 39.92 29.16 40.104V47.436C29.16 47.62 29.104 47.772 28.992 47.892C28.88 48.004 28.732 48.06 28.548 48.06C28.364 48.06 28.216 48.004 28.104 47.892C27.992 47.78 27.936 47.628 27.936 47.436V44.208H23.208V47.436C23.208 47.62 23.152 47.772 23.04 47.892C22.928 48.004 22.78 48.06 22.596 48.06C22.412 48.06 22.264 48.004 22.152 47.892C22.04 47.78 21.984 47.628 21.984 47.436V40.104C21.984 39.92 22.04 39.772 22.152 39.66C22.264 39.54 22.412 39.48 22.596 39.48C22.78 39.48 22.928 39.54 23.04 39.66C23.152 39.772 23.208 39.92 23.208 40.104V43.2H27.936V40.104C27.936 39.92 27.992 39.772 28.104 39.66C28.216 39.54 28.364 39.48 28.548 39.48ZM33.5246 48.084C32.9486 48.084 32.4406 47.96 32.0006 47.712C31.5686 47.464 31.2326 47.112 30.9926 46.656C30.7606 46.192 30.6446 45.656 30.6446 45.048C30.6446 44.432 30.7606 43.896 30.9926 43.44C31.2326 42.976 31.5686 42.62 32.0006 42.372C32.4406 42.124 32.9486 42 33.5246 42C34.1006 42 34.6046 42.124 35.0366 42.372C35.4766 42.62 35.8126 42.976 36.0446 43.44C36.2846 43.896 36.4046 44.432 36.4046 45.048C36.4046 45.656 36.2846 46.192 36.0446 46.656C35.8126 47.112 35.4766 47.464 35.0366 47.712C34.6046 47.96 34.1006 48.084 33.5246 48.084ZM33.5246 47.124C34.0606 47.124 34.4686 46.948 34.7486 46.596C35.0366 46.244 35.1806 45.728 35.1806 45.048C35.1806 44.376 35.0366 43.864 34.7486 43.512C34.4606 43.152 34.0526 42.972 33.5246 42.972C32.9966 42.972 32.5886 43.152 32.3006 43.512C32.0126 43.864 31.8686 44.376 31.8686 45.048C31.8686 45.728 32.0086 46.244 32.2886 46.596C32.5766 46.948 32.9886 47.124 33.5246 47.124ZM44.4741 42C45.7861 42 46.4421 42.788 46.4421 44.364V47.484C46.4421 47.668 46.3861 47.812 46.2741 47.916C46.1621 48.012 46.0141 48.06 45.8301 48.06C45.6541 48.06 45.5101 48.012 45.3981 47.916C45.2861 47.812 45.2301 47.668 45.2301 47.484V44.376C45.2301 43.888 45.1421 43.536 44.9661 43.32C44.7901 43.096 44.5141 42.984 44.1381 42.984C43.6981 42.984 43.3501 43.136 43.0941 43.44C42.8381 43.736 42.7101 44.144 42.7101 44.664V47.484C42.7101 47.668 42.6541 47.812 42.5421 47.916C42.4301 48.012 42.2821 48.06 42.0981 48.06C41.9221 48.06 41.7781 48.012 41.6661 47.916C41.5541 47.812 41.4981 47.668 41.4981 47.484V44.376C41.4981 43.888 41.4101 43.536 41.2341 43.32C41.0581 43.096 40.7821 42.984 40.4061 42.984C39.9661 42.984 39.6141 43.136 39.3501 43.44C39.0941 43.736 38.9661 44.144 38.9661 44.664V47.484C38.9661 47.668 38.9101 47.812 38.7981 47.916C38.6861 48.012 38.5421 48.06 38.3661 48.06C38.1901 48.06 38.0421 48.012 37.9221 47.916C37.8101 47.812 37.7541 47.668 37.7541 47.484V42.6C37.7541 42.424 37.8141 42.284 37.9341 42.18C38.0541 42.076 38.1981 42.024 38.3661 42.024C38.5341 42.024 38.6701 42.076 38.7741 42.18C38.8861 42.276 38.9421 42.412 38.9421 42.588V43.032C39.1181 42.696 39.3621 42.44 39.6741 42.264C39.9861 42.088 40.3461 42 40.7541 42C41.2021 42 41.5701 42.092 41.8581 42.276C42.1541 42.46 42.3741 42.744 42.5181 43.128C42.6941 42.784 42.9541 42.512 43.2981 42.312C43.6421 42.104 44.0341 42 44.4741 42ZM52.6857 46.524C52.7977 46.524 52.8897 46.568 52.9617 46.656C53.0337 46.744 53.0697 46.856 53.0697 46.992C53.0697 47.224 52.9257 47.42 52.6377 47.58C52.3577 47.74 52.0497 47.864 51.7137 47.952C51.3857 48.04 51.0697 48.084 50.7657 48.084C49.8377 48.084 49.1057 47.816 48.5697 47.28C48.0337 46.736 47.7657 45.996 47.7657 45.06C47.7657 44.46 47.8817 43.928 48.1137 43.464C48.3537 43 48.6857 42.64 49.1097 42.384C49.5417 42.128 50.0297 42 50.5737 42C51.3577 42 51.9777 42.252 52.4337 42.756C52.8897 43.26 53.1177 43.94 53.1177 44.796C53.1177 45.116 52.9737 45.276 52.6857 45.276H48.9777C49.0577 46.516 49.6537 47.136 50.7657 47.136C51.0617 47.136 51.3177 47.096 51.5337 47.016C51.7497 46.936 51.9777 46.832 52.2177 46.704C52.2417 46.688 52.3057 46.656 52.4097 46.608C52.5217 46.552 52.6137 46.524 52.6857 46.524ZM50.5977 42.888C50.1337 42.888 49.7617 43.036 49.4817 43.332C49.2017 43.628 49.0337 44.044 48.9777 44.58H52.0737C52.0497 44.036 51.9097 43.62 51.6537 43.332C51.4057 43.036 51.0537 42.888 50.5977 42.888Z" fill="white"/>
</svg>
