<svg width="41" height="41" viewBox="0 0 41 41" fill="none" xmlns="http://www.w3.org/2000/svg">
<path d="M37.7264 17.7758C37.7264 18.6411 37.4698 19.4869 36.989 20.2064C36.5083 20.9258 35.825 21.4866 35.0256 21.8177C34.2262 22.1489 33.3465 22.2355 32.4978 22.0667C31.6492 21.8979 30.8696 21.4812 30.2578 20.8693C29.6459 20.2575 29.2292 19.4779 29.0604 18.6293C28.8916 17.7806 28.9782 16.9009 29.3094 16.1015C29.6405 15.3021 30.2013 14.6188 30.9207 14.1381C31.6402 13.6573 32.4861 13.4008 33.3514 13.4008C34.5104 13.4049 35.6208 13.8671 36.4404 14.6867C37.26 15.5063 37.7222 16.6167 37.7264 17.7758V17.7758ZM11.4764 17.7758C11.4764 16.9105 11.2198 16.0646 10.739 15.3451C10.2583 14.6257 9.57502 14.0649 8.77559 13.7338C7.97616 13.4027 7.0965 13.316 6.24783 13.4848C5.39916 13.6536 4.61961 14.0703 4.00776 14.6822C3.3959 15.294 2.97923 16.0736 2.81042 16.9222C2.6416 17.7709 2.72824 18.6506 3.05938 19.45C3.39051 20.2494 3.95127 20.9327 4.67073 21.4134C5.3902 21.8942 6.23606 22.1508 7.10135 22.1508C8.26041 22.1466 9.37081 21.6844 10.1904 20.8648C11.01 20.0452 11.4722 18.9348 11.4764 17.7758ZM14.6014 14.6508C15.4666 14.6508 16.3125 14.3942 17.032 13.9134C17.7514 13.4327 18.3122 12.7494 18.6433 11.95C18.9745 11.1506 19.0611 10.2709 18.8923 9.42224C18.7235 8.57357 18.3068 7.79402 17.6949 7.18217C17.0831 6.57031 16.3035 6.15363 15.4549 5.98482C14.6062 5.81601 13.7265 5.90265 12.9271 6.23379C12.1277 6.56492 11.4444 7.12567 10.9637 7.84514C10.4829 8.5646 10.2264 9.41047 10.2264 10.2758C10.2305 11.4348 10.6927 12.5452 11.5123 13.3648C12.3319 14.1844 13.4423 14.6466 14.6014 14.6508V14.6508ZM25.8514 14.6508C26.7166 14.6508 27.5625 14.3942 28.282 13.9134C29.0014 13.4327 29.5622 12.7494 29.8933 11.95C30.2245 11.1506 30.3111 10.2709 30.1423 9.42224C29.9735 8.57357 29.5568 7.79402 28.9449 7.18217C28.3331 6.57031 27.5535 6.15363 26.7049 5.98482C25.8562 5.81601 24.9765 5.90265 24.1771 6.23379C23.3777 6.56492 22.6944 7.12567 22.2137 7.84514C21.7329 8.5646 21.4764 9.41047 21.4764 10.2758C21.4805 11.4348 21.9427 12.5452 22.7623 13.3648C23.5819 14.1844 24.6923 14.6466 25.8514 14.6508ZM29.4607 24.1508C28.8256 23.8017 28.2654 23.3308 27.8123 22.7651C27.3592 22.1994 27.022 21.55 26.8201 20.8539C26.4096 19.422 25.5442 18.1627 24.3546 17.2662C23.165 16.3697 21.7159 15.8849 20.2264 15.8849C18.7368 15.8849 17.2877 16.3697 16.0981 17.2662C14.9086 18.1627 14.0431 19.422 13.6326 20.8539C13.2254 22.2554 12.2823 23.4399 11.0076 24.1508C9.78335 24.8115 8.81456 25.8619 8.25467 27.1355C7.69479 28.409 7.57582 29.833 7.91661 31.1818C8.2574 32.5306 9.03846 33.7271 10.1361 34.5819C11.2337 35.4367 12.5852 35.9008 13.9764 35.9008C14.8076 35.8999 15.6306 35.7353 16.3982 35.4164C18.8433 34.4034 21.5896 34.3978 24.0389 35.4008C24.8091 35.7308 25.6384 35.9009 26.4764 35.9008C27.8689 35.9043 29.2227 35.4427 30.323 34.5891C31.4233 33.7356 32.207 32.539 32.5498 31.1894C32.8926 29.8397 32.7749 28.4142 32.2153 27.139C31.6556 25.8639 30.6862 24.8122 29.4607 24.1508V24.1508Z" fill="#454545"/>
</svg>
