<svg width="24" height="21" viewBox="0 0 24 21" fill="none" xmlns="http://www.w3.org/2000/svg">
<path d="M23.0038 5.32302C22.24 4.0371 21.167 2.8139 20.4425 2.17218C18.8609 0.770952 17.5416 0.805077 16.8958 0.950201C16.6245 1.01119 16.3754 1.11173 16.1561 1.24584C15.0292 0.40964 13.6584 0 12 0C10.3415 0 8.97069 0.40964 7.84391 1.24589C7.62454 1.11178 7.37544 1.01119 7.10413 0.950248C6.45852 0.80517 5.13904 0.770999 3.55757 2.17218C2.83303 2.81395 1.76006 4.03715 0.996189 5.32307C-0.0379656 7.06405 -0.268309 8.47241 0.311534 9.50914C1.01953 10.7749 2.09344 11.0988 2.96039 11.1787C2.74729 12.0063 2.61572 12.8916 2.61572 13.9947C2.61572 15.4569 2.94853 16.7148 3.60501 17.7336C4.18209 18.6293 5.0129 19.3465 6.07434 19.8654C8.03549 20.824 10.3955 20.9349 12 20.9349C13.6046 20.9349 15.9646 20.824 17.9257 19.8654C18.9871 19.3465 19.818 18.6293 20.395 17.7336C21.0515 16.7148 21.3843 15.4568 21.3843 13.9947C21.3843 12.8916 21.2528 12.0063 21.0397 11.1787C21.9066 11.0988 22.9806 10.7748 23.6885 9.50909C24.2683 8.47245 24.0379 7.06405 23.0038 5.32302ZM3.41615 9.73179C2.6489 9.71164 2.025 9.56309 1.5937 8.79205C1.30111 8.26888 1.54369 7.27794 2.25933 6.07321C2.9385 4.92979 3.91336 3.81951 4.53173 3.27168C5.55295 2.36681 6.31851 2.31698 6.67869 2.36521C5.6068 3.6719 4.94981 5.37008 4.40039 7.02116C4.17285 7.70488 3.95357 8.28861 3.74142 8.85322C3.62798 9.15528 3.51886 9.44581 3.41615 9.73179ZM11.0416 14.5482C10.6616 14.1684 10.4627 13.7696 10.4627 13.5721C10.4627 13.3957 10.493 13.3831 10.6053 13.3358C10.9256 13.201 11.5547 13.1854 12 13.1854C12.4453 13.1854 13.0744 13.201 13.3946 13.3358C13.507 13.383 13.5372 13.3958 13.5372 13.5721C13.5372 13.7696 13.3384 14.1683 12.9583 14.5482C12.5846 14.9217 12.1857 15.1232 11.9999 15.1232C11.8142 15.1232 11.4154 14.9217 11.0416 14.5482ZM17.2806 18.5456C16.1532 19.0966 14.6608 19.3955 12.7345 19.4547V16.4456C13.3113 16.223 13.7809 15.803 13.9969 15.5873C14.3004 15.2839 15.0063 14.4803 15.0063 13.5722C15.0063 12.8292 14.6363 12.2644 13.9644 11.9817C13.5165 11.7933 12.9474 11.7164 12 11.7164C11.0527 11.7164 10.4835 11.7933 10.0356 11.9817C9.36378 12.2644 8.9937 12.8292 8.9937 13.5722C8.9937 14.4803 9.69969 15.2839 10.0032 15.5873C10.2191 15.8031 10.6888 16.2231 11.2655 16.4456V19.4547C9.33922 19.3955 7.84682 19.0967 6.71943 18.5456C4.94653 17.679 4.08468 16.1904 4.08468 13.9947C4.08468 12.1163 4.51753 10.9643 5.11654 9.36983C5.3234 8.81928 5.55777 8.19528 5.79416 7.48499C7.0926 3.58331 8.46613 1.46901 12 1.46901C15.5338 1.46901 16.9074 3.58335 18.2058 7.48499C18.4421 8.19533 18.6766 8.81928 18.8834 9.36983C19.4824 10.9643 19.9152 12.1163 19.9152 13.9947C19.9153 16.1904 19.0534 17.679 17.2806 18.5456ZM22.4064 8.79205C21.975 9.56318 21.3511 9.71159 20.5839 9.73179C20.4811 9.44576 20.3721 9.15528 20.2586 8.85322C20.0465 8.28866 19.8272 7.70488 19.5997 7.02116C19.0502 5.37008 18.3932 3.6719 17.3214 2.36521C17.6815 2.31707 18.4472 2.36681 19.4684 3.27173C20.0868 3.81946 21.0616 4.92969 21.7408 6.07311C22.4564 7.27794 22.6989 8.26892 22.4064 8.79205Z" fill="#454545"/>
<path d="M9.5559 7.80727C9.02448 7.80727 8.59196 8.24419 8.59196 8.78367C8.59196 9.32311 9.02443 9.76041 9.5559 9.76041C10.088 9.76041 10.5204 9.32306 10.5204 8.78367C10.5204 8.24419 10.088 7.80727 9.5559 7.80727Z" fill="#454545"/>
<path d="M14.4371 7.79986C13.9006 7.79986 13.4653 8.24044 13.4653 8.78391C13.4653 9.32738 13.9006 9.76795 14.4371 9.76795C14.9731 9.76795 15.4083 9.32738 15.4083 8.78391C15.4084 8.24044 14.9731 7.79986 14.4371 7.79986Z" fill="#454545"/>
</svg>
