<svg width="30" height="27" viewBox="0 0 30 27" fill="none" xmlns="http://www.w3.org/2000/svg">
<g filter="url(#filter0_d_806_26532)">
<path d="M25.4099 10.41L20.5799 5.58C20.2099 5.21 19.6999 5 19.1699 5H5.99994C4.89994 5 3.99994 5.89 3.99994 7V14C3.99994 15.1 4.89994 16 5.99994 16C5.99994 17.66 7.33994 19 8.99994 19C10.6599 19 11.9999 17.66 11.9999 16H17.9999C17.9999 17.66 19.3399 19 20.9999 19C22.6599 19 23.9999 17.66 23.9999 16C25.0999 16 25.9999 15.1 25.9999 14V11.83C25.9999 11.3 25.7899 10.79 25.4099 10.41ZM5.99994 10V8C5.99994 7.45 6.44994 7 6.99994 7H9.99994V11H6.99994C6.44994 11 5.99994 10.55 5.99994 10ZM8.99994 17.25C8.30994 17.25 7.74994 16.69 7.74994 16C7.74994 15.31 8.30994 14.75 8.99994 14.75C9.68994 14.75 10.2499 15.31 10.2499 16C10.2499 16.69 9.68994 17.25 8.99994 17.25ZM15.9999 11H11.9999V7H15.9999V11ZM20.9999 17.25C20.3099 17.25 19.7499 16.69 19.7499 16C19.7499 15.31 20.3099 14.75 20.9999 14.75C21.6899 14.75 22.2499 15.31 22.2499 16C22.2499 16.69 21.6899 17.25 20.9999 17.25ZM17.9999 11V7H18.9999L22.9999 11H17.9999Z" fill="#454545"/>
</g>
<defs>
<filter id="filter0_d_806_26532" x="-1" y="0" width="32" height="32" filterUnits="userSpaceOnUse" color-interpolation-filters="sRGB">
<feFlood flood-opacity="0" result="BackgroundImageFix"/>
<feColorMatrix in="SourceAlpha" type="matrix" values="0 0 0 0 0 0 0 0 0 0 0 0 0 0 0 0 0 0 127 0" result="hardAlpha"/>
<feOffset dy="4"/>
<feGaussianBlur stdDeviation="2"/>
<feComposite in2="hardAlpha" operator="out"/>
<feColorMatrix type="matrix" values="0 0 0 0 0 0 0 0 0 0 0 0 0 0 0 0 0 0 0.25 0"/>
<feBlend mode="normal" in2="BackgroundImageFix" result="effect1_dropShadow_806_26532"/>
<feBlend mode="normal" in="SourceGraphic" in2="effect1_dropShadow_806_26532" result="shape"/>
</filter>
</defs>
</svg>
