<svg width="75" height="64" viewBox="0 0 75 64" fill="none" xmlns="http://www.w3.org/2000/svg">
<path d="M37.5 18.5V25.5" stroke="#454545" stroke-width="2" stroke-linecap="round" stroke-linejoin="round"/>
<path d="M41 22H34" stroke="#454545" stroke-width="2" stroke-linecap="round" stroke-linejoin="round"/>
<path d="M48.501 13H26.501C25.9487 13 25.501 13.4477 25.501 14V30C25.501 30.5523 25.9487 31 26.501 31H48.501C49.0533 31 49.501 30.5523 49.501 30V14C49.501 13.4477 49.0533 13 48.501 13Z" stroke="#454545" stroke-width="2" stroke-linecap="round" stroke-linejoin="round"/>
<path d="M42.5 13V10.5C42.5 9.96957 42.2893 9.46086 41.9142 9.08579C41.5391 8.71071 41.0304 8.5 40.5 8.5H34.5C33.9696 8.5 33.4609 8.71071 33.0858 9.08579C32.7107 9.46086 32.5 9.96957 32.5 10.5V13" stroke="#454545" stroke-width="2" stroke-linecap="round" stroke-linejoin="round"/>
<path d="M17.78 48.096C17.172 48.096 16.592 48.012 16.04 47.844C15.496 47.676 15.06 47.444 14.732 47.148C14.58 47.02 14.504 46.856 14.504 46.656C14.504 46.512 14.544 46.392 14.624 46.296C14.704 46.192 14.8 46.14 14.912 46.14C15.024 46.14 15.16 46.192 15.32 46.296C16.032 46.824 16.844 47.088 17.756 47.088C18.396 47.088 18.888 46.968 19.232 46.728C19.576 46.488 19.748 46.144 19.748 45.696C19.748 45.344 19.588 45.08 19.268 44.904C18.948 44.728 18.436 44.56 17.732 44.4C17.06 44.256 16.508 44.092 16.076 43.908C15.644 43.724 15.304 43.476 15.056 43.164C14.816 42.844 14.696 42.44 14.696 41.952C14.696 41.464 14.828 41.032 15.092 40.656C15.364 40.272 15.74 39.976 16.22 39.768C16.7 39.552 17.248 39.444 17.864 39.444C18.432 39.444 18.956 39.524 19.436 39.684C19.916 39.844 20.324 40.08 20.66 40.392C20.82 40.528 20.9 40.692 20.9 40.884C20.9 41.02 20.856 41.14 20.768 41.244C20.688 41.348 20.592 41.4 20.48 41.4C20.376 41.4 20.244 41.348 20.084 41.244C19.716 40.964 19.368 40.764 19.04 40.644C18.72 40.516 18.332 40.452 17.876 40.452C17.26 40.452 16.78 40.58 16.436 40.836C16.092 41.084 15.92 41.432 15.92 41.88C15.92 42.264 16.072 42.556 16.376 42.756C16.68 42.948 17.168 43.124 17.84 43.284C18.544 43.444 19.112 43.612 19.544 43.788C19.984 43.956 20.332 44.192 20.588 44.496C20.852 44.792 20.984 45.176 20.984 45.648C20.984 46.128 20.848 46.556 20.576 46.932C20.312 47.3 19.936 47.588 19.448 47.796C18.968 47.996 18.412 48.096 17.78 48.096ZM26.8994 42.024C27.0834 42.024 27.2274 42.076 27.3314 42.18C27.4434 42.284 27.4994 42.428 27.4994 42.612V47.496C27.4994 47.664 27.4434 47.8 27.3314 47.904C27.2194 48.008 27.0714 48.06 26.8874 48.06C26.7194 48.06 26.5834 48.012 26.4794 47.916C26.3754 47.812 26.3234 47.676 26.3234 47.508V47.052C26.1394 47.388 25.8834 47.644 25.5554 47.82C25.2354 47.996 24.8754 48.084 24.4754 48.084C23.0514 48.084 22.3394 47.3 22.3394 45.732V42.612C22.3394 42.428 22.3914 42.284 22.4954 42.18C22.6074 42.076 22.7594 42.024 22.9514 42.024C23.1354 42.024 23.2794 42.076 23.3834 42.18C23.4954 42.284 23.5514 42.428 23.5514 42.612V45.72C23.5514 46.192 23.6474 46.54 23.8394 46.764C24.0314 46.988 24.3274 47.1 24.7274 47.1C25.1994 47.1 25.5754 46.948 25.8554 46.644C26.1434 46.34 26.2874 45.936 26.2874 45.432V42.612C26.2874 42.436 26.3434 42.296 26.4554 42.192C26.5674 42.08 26.7154 42.024 26.8994 42.024ZM32.3395 42C32.8435 42 33.2915 42.128 33.6835 42.384C34.0835 42.64 34.3915 43 34.6075 43.464C34.8315 43.928 34.9435 44.464 34.9435 45.072C34.9435 45.672 34.8355 46.2 34.6195 46.656C34.4035 47.112 34.0955 47.464 33.6955 47.712C33.3035 47.96 32.8515 48.084 32.3395 48.084C31.8995 48.084 31.5115 47.992 31.1755 47.808C30.8395 47.616 30.5835 47.344 30.4075 46.992V49.668C30.4075 49.836 30.3515 49.968 30.2395 50.064C30.1355 50.168 29.9955 50.22 29.8195 50.22C29.6355 50.22 29.4835 50.168 29.3635 50.064C29.2515 49.96 29.1955 49.82 29.1955 49.644V42.612C29.1955 42.436 29.2515 42.296 29.3635 42.192C29.4755 42.08 29.6235 42.024 29.8075 42.024C29.9835 42.024 30.1275 42.08 30.2395 42.192C30.3515 42.296 30.4075 42.436 30.4075 42.612V43.104C30.5835 42.752 30.8395 42.48 31.1755 42.288C31.5115 42.096 31.8995 42 32.3395 42ZM32.0515 47.124C32.5795 47.124 32.9875 46.948 33.2755 46.596C33.5635 46.236 33.7075 45.728 33.7075 45.072C33.7075 44.408 33.5595 43.892 33.2635 43.524C32.9755 43.156 32.5715 42.972 32.0515 42.972C31.5235 42.972 31.1155 43.152 30.8275 43.512C30.5475 43.872 30.4075 44.384 30.4075 45.048C30.4075 45.712 30.5475 46.224 30.8275 46.584C31.1155 46.944 31.5235 47.124 32.0515 47.124ZM39.4293 42C39.9333 42 40.3813 42.128 40.7733 42.384C41.1733 42.64 41.4813 43 41.6973 43.464C41.9213 43.928 42.0333 44.464 42.0333 45.072C42.0333 45.672 41.9253 46.2 41.7093 46.656C41.4933 47.112 41.1853 47.464 40.7853 47.712C40.3933 47.96 39.9413 48.084 39.4293 48.084C38.9893 48.084 38.6013 47.992 38.2653 47.808C37.9293 47.616 37.6733 47.344 37.4973 46.992V49.668C37.4973 49.836 37.4413 49.968 37.3293 50.064C37.2253 50.168 37.0853 50.22 36.9093 50.22C36.7253 50.22 36.5733 50.168 36.4533 50.064C36.3413 49.96 36.2853 49.82 36.2853 49.644V42.612C36.2853 42.436 36.3413 42.296 36.4533 42.192C36.5653 42.08 36.7133 42.024 36.8973 42.024C37.0733 42.024 37.2173 42.08 37.3293 42.192C37.4413 42.296 37.4973 42.436 37.4973 42.612V43.104C37.6733 42.752 37.9293 42.48 38.2653 42.288C38.6013 42.096 38.9893 42 39.4293 42ZM39.1413 47.124C39.6693 47.124 40.0773 46.948 40.3653 46.596C40.6533 46.236 40.7973 45.728 40.7973 45.072C40.7973 44.408 40.6493 43.892 40.3533 43.524C40.0653 43.156 39.6613 42.972 39.1413 42.972C38.6133 42.972 38.2053 43.152 37.9173 43.512C37.6373 43.872 37.4973 44.384 37.4973 45.048C37.4973 45.712 37.6373 46.224 37.9173 46.584C38.2053 46.944 38.6133 47.124 39.1413 47.124ZM43.9872 48.06C43.8112 48.06 43.6632 48.012 43.5432 47.916C43.4312 47.82 43.3752 47.676 43.3752 47.484V40.068C43.3752 39.876 43.4312 39.732 43.5432 39.636C43.6632 39.532 43.8112 39.48 43.9872 39.48C44.1632 39.48 44.3072 39.532 44.4192 39.636C44.5312 39.732 44.5872 39.876 44.5872 40.068V47.484C44.5872 47.676 44.5312 47.82 44.4192 47.916C44.3072 48.012 44.1632 48.06 43.9872 48.06ZM46.8934 48.06C46.7174 48.06 46.5694 48.012 46.4494 47.916C46.3374 47.82 46.2814 47.676 46.2814 47.484V42.612C46.2814 42.42 46.3374 42.276 46.4494 42.18C46.5694 42.076 46.7174 42.024 46.8934 42.024C47.0694 42.024 47.2134 42.076 47.3254 42.18C47.4374 42.276 47.4934 42.42 47.4934 42.612V47.484C47.4934 47.676 47.4374 47.82 47.3254 47.916C47.2134 48.012 47.0694 48.06 46.8934 48.06ZM46.8934 40.848C46.6614 40.848 46.4774 40.784 46.3414 40.656C46.2054 40.528 46.1374 40.36 46.1374 40.152C46.1374 39.944 46.2054 39.78 46.3414 39.66C46.4774 39.532 46.6614 39.468 46.8934 39.468C47.1174 39.468 47.2974 39.532 47.4334 39.66C47.5774 39.78 47.6494 39.944 47.6494 40.152C47.6494 40.36 47.5814 40.528 47.4454 40.656C47.3094 40.784 47.1254 40.848 46.8934 40.848ZM53.7717 46.524C53.8837 46.524 53.9757 46.568 54.0477 46.656C54.1197 46.744 54.1557 46.856 54.1557 46.992C54.1557 47.224 54.0117 47.42 53.7237 47.58C53.4437 47.74 53.1357 47.864 52.7997 47.952C52.4717 48.04 52.1557 48.084 51.8517 48.084C50.9237 48.084 50.1917 47.816 49.6557 47.28C49.1197 46.736 48.8517 45.996 48.8517 45.06C48.8517 44.46 48.9677 43.928 49.1997 43.464C49.4397 43 49.7717 42.64 50.1957 42.384C50.6277 42.128 51.1157 42 51.6597 42C52.4437 42 53.0637 42.252 53.5197 42.756C53.9757 43.26 54.2037 43.94 54.2037 44.796C54.2037 45.116 54.0597 45.276 53.7717 45.276H50.0637C50.1437 46.516 50.7397 47.136 51.8517 47.136C52.1477 47.136 52.4037 47.096 52.6197 47.016C52.8357 46.936 53.0637 46.832 53.3037 46.704C53.3277 46.688 53.3917 46.656 53.4957 46.608C53.6077 46.552 53.6997 46.524 53.7717 46.524ZM51.6837 42.888C51.2197 42.888 50.8477 43.036 50.5677 43.332C50.2877 43.628 50.1197 44.044 50.0637 44.58H53.1597C53.1357 44.036 52.9957 43.62 52.7397 43.332C52.4917 43.036 52.1397 42.888 51.6837 42.888ZM57.5792 48.084C56.7632 48.084 56.0952 47.916 55.5752 47.58C55.4312 47.492 55.3272 47.4 55.2632 47.304C55.2072 47.208 55.1792 47.1 55.1792 46.98C55.1792 46.852 55.2152 46.744 55.2872 46.656C55.3592 46.568 55.4512 46.524 55.5632 46.524C55.6672 46.524 55.8312 46.588 56.0552 46.716C56.2952 46.844 56.5272 46.948 56.7512 47.028C56.9832 47.108 57.2712 47.148 57.6152 47.148C57.9992 47.148 58.2992 47.08 58.5152 46.944C58.7312 46.808 58.8392 46.616 58.8392 46.368C58.8392 46.208 58.7952 46.08 58.7072 45.984C58.6272 45.888 58.4832 45.804 58.2752 45.732C58.0672 45.652 57.7592 45.568 57.3512 45.48C56.6472 45.328 56.1392 45.124 55.8272 44.868C55.5232 44.604 55.3712 44.248 55.3712 43.8C55.3712 43.456 55.4712 43.148 55.6712 42.876C55.8712 42.596 56.1472 42.38 56.4992 42.228C56.8512 42.076 57.2512 42 57.6992 42C58.0192 42 58.3312 42.044 58.6352 42.132C58.9392 42.212 59.2072 42.332 59.4392 42.492C59.7032 42.668 59.8352 42.872 59.8352 43.104C59.8352 43.232 59.7952 43.34 59.7152 43.428C59.6432 43.516 59.5552 43.56 59.4512 43.56C59.3792 43.56 59.3072 43.544 59.2352 43.512C59.1632 43.48 59.0672 43.428 58.9472 43.356C58.7312 43.228 58.5272 43.128 58.3352 43.056C58.1512 42.984 57.9192 42.948 57.6392 42.948C57.3032 42.948 57.0312 43.02 56.8232 43.164C56.6232 43.308 56.5232 43.504 56.5232 43.752C56.5232 43.976 56.6152 44.152 56.7992 44.28C56.9912 44.4 57.3472 44.516 57.8672 44.628C58.4032 44.74 58.8232 44.868 59.1272 45.012C59.4312 45.156 59.6472 45.336 59.7752 45.552C59.9112 45.76 59.9792 46.028 59.9792 46.356C59.9792 46.876 59.7592 47.296 59.3192 47.616C58.8872 47.928 58.3072 48.084 57.5792 48.084Z" fill="#454545"/>
</svg>
