<svg width="75" height="64" viewBox="0 0 75 64" fill="none" xmlns="http://www.w3.org/2000/svg">
<path d="M32.5 24C36.0899 24 39 21.0899 39 17.5C39 13.9101 36.0899 11 32.5 11C28.9102 11 26 13.9101 26 17.5C26 21.0899 28.9102 24 32.5 24Z" stroke="#454545" stroke-width="2" stroke-miterlimit="10"/>
<path d="M40.9266 11.2417C41.8206 10.9898 42.7582 10.9324 43.6763 11.0734C44.5944 11.2144 45.4716 11.5505 46.2488 12.059C47.026 12.5676 47.6853 13.2368 48.1821 14.0216C48.6789 14.8063 49.0018 15.6885 49.129 16.6086C49.2562 17.5287 49.1848 18.4653 48.9195 19.3555C48.6542 20.2456 48.2013 21.0686 47.5911 21.7689C46.981 22.4693 46.2279 23.0307 45.3825 23.4155C44.5371 23.8003 43.6191 23.9994 42.6903 23.9995" stroke="#454545" stroke-width="2" stroke-linecap="round" stroke-linejoin="round"/>
<path d="M23.4995 28.6746C24.5147 27.2306 25.8624 26.052 27.4288 25.2384C28.9953 24.4248 30.7345 24.0001 32.4996 24C34.2648 23.9999 36.004 24.4246 37.5705 25.238C39.137 26.0515 40.4848 27.23 41.5001 28.6739" stroke="#454545" stroke-width="2" stroke-linecap="round" stroke-linejoin="round"/>
<path d="M42.6902 24C44.4555 23.9987 46.1952 24.4228 47.7618 25.2364C49.3284 26.05 50.676 27.2291 51.6903 28.6739" stroke="#454545" stroke-width="2" stroke-linecap="round" stroke-linejoin="round"/>
<path d="M15.164 39.804C15.268 39.58 15.44 39.468 15.68 39.468C15.84 39.468 15.984 39.524 16.112 39.636C16.24 39.74 16.304 39.868 16.304 40.02C16.304 40.076 16.284 40.152 16.244 40.248L12.86 47.664C12.804 47.792 12.716 47.892 12.596 47.964C12.476 48.036 12.348 48.072 12.212 48.072C12.076 48.072 11.944 48.036 11.816 47.964C11.696 47.892 11.608 47.792 11.552 47.664L8.18 40.248C8.14 40.152 8.12 40.076 8.12 40.02C8.12 39.86 8.184 39.728 8.312 39.624C8.448 39.52 8.596 39.468 8.756 39.468C9.004 39.468 9.18 39.58 9.284 39.804L12.224 46.392L15.164 39.804ZM19.1184 48.084C18.5424 48.084 18.0344 47.96 17.5944 47.712C17.1624 47.464 16.8264 47.112 16.5864 46.656C16.3544 46.192 16.2384 45.656 16.2384 45.048C16.2384 44.432 16.3544 43.896 16.5864 43.44C16.8264 42.976 17.1624 42.62 17.5944 42.372C18.0344 42.124 18.5424 42 19.1184 42C19.6944 42 20.1984 42.124 20.6304 42.372C21.0704 42.62 21.4064 42.976 21.6384 43.44C21.8784 43.896 21.9984 44.432 21.9984 45.048C21.9984 45.656 21.8784 46.192 21.6384 46.656C21.4064 47.112 21.0704 47.464 20.6304 47.712C20.1984 47.96 19.6944 48.084 19.1184 48.084ZM19.1184 47.124C19.6544 47.124 20.0624 46.948 20.3424 46.596C20.6304 46.244 20.7744 45.728 20.7744 45.048C20.7744 44.376 20.6304 43.864 20.3424 43.512C20.0544 43.152 19.6464 42.972 19.1184 42.972C18.5904 42.972 18.1824 43.152 17.8944 43.512C17.6064 43.864 17.4624 44.376 17.4624 45.048C17.4624 45.728 17.6024 46.244 17.8824 46.596C18.1704 46.948 18.5824 47.124 19.1184 47.124ZM23.9598 48.06C23.7838 48.06 23.6358 48.012 23.5158 47.916C23.4038 47.82 23.3478 47.676 23.3478 47.484V40.068C23.3478 39.876 23.4038 39.732 23.5158 39.636C23.6358 39.532 23.7838 39.48 23.9598 39.48C24.1358 39.48 24.2798 39.532 24.3918 39.636C24.5038 39.732 24.5598 39.876 24.5598 40.068V47.484C24.5598 47.676 24.5038 47.82 24.3918 47.916C24.2798 48.012 24.1358 48.06 23.9598 48.06ZM30.7901 42.024C30.9741 42.024 31.1181 42.076 31.2221 42.18C31.3341 42.284 31.3901 42.428 31.3901 42.612V47.496C31.3901 47.664 31.3341 47.8 31.2221 47.904C31.1101 48.008 30.9621 48.06 30.7781 48.06C30.6101 48.06 30.4741 48.012 30.3701 47.916C30.2661 47.812 30.2141 47.676 30.2141 47.508V47.052C30.0301 47.388 29.7741 47.644 29.4461 47.82C29.1261 47.996 28.7661 48.084 28.3661 48.084C26.9421 48.084 26.2301 47.3 26.2301 45.732V42.612C26.2301 42.428 26.2821 42.284 26.3861 42.18C26.4981 42.076 26.6501 42.024 26.8421 42.024C27.0261 42.024 27.1701 42.076 27.2741 42.18C27.3861 42.284 27.4421 42.428 27.4421 42.612V45.72C27.4421 46.192 27.5381 46.54 27.7301 46.764C27.9221 46.988 28.2181 47.1 28.6181 47.1C29.0901 47.1 29.4661 46.948 29.7461 46.644C30.0341 46.34 30.1781 45.936 30.1781 45.432V42.612C30.1781 42.436 30.2341 42.296 30.3461 42.192C30.4581 42.08 30.6061 42.024 30.7901 42.024ZM36.2421 42C37.6421 42 38.3421 42.788 38.3421 44.364V47.484C38.3421 47.668 38.2861 47.812 38.1741 47.916C38.0701 48.012 37.9221 48.06 37.7301 48.06C37.5461 48.06 37.3981 48.008 37.2861 47.904C37.1821 47.8 37.1301 47.66 37.1301 47.484V44.424C37.1301 43.928 37.0301 43.564 36.8301 43.332C36.6381 43.1 36.3341 42.984 35.9181 42.984C35.4301 42.984 35.0381 43.136 34.7421 43.44C34.4461 43.744 34.2981 44.152 34.2981 44.664V47.484C34.2981 47.66 34.2421 47.8 34.1301 47.904C34.0261 48.008 33.8821 48.06 33.6981 48.06C33.5141 48.06 33.3661 48.008 33.2541 47.904C33.1421 47.8 33.0861 47.66 33.0861 47.484V42.6C33.0861 42.432 33.1421 42.296 33.2541 42.192C33.3741 42.08 33.5221 42.024 33.6981 42.024C33.8741 42.024 34.0141 42.076 34.1181 42.18C34.2221 42.284 34.2741 42.42 34.2741 42.588V43.08C34.4661 42.728 34.7341 42.46 35.0781 42.276C35.4221 42.092 35.8101 42 36.2421 42ZM42.8682 47.136C43.0442 47.152 43.1682 47.2 43.2402 47.28C43.3202 47.352 43.3602 47.456 43.3602 47.592C43.3602 47.752 43.2962 47.876 43.1682 47.964C43.0482 48.044 42.8682 48.076 42.6282 48.06L42.3042 48.036C41.6562 47.988 41.1722 47.792 40.8522 47.448C40.5322 47.096 40.3722 46.58 40.3722 45.9V43.08H39.6522C39.3002 43.08 39.1242 42.924 39.1242 42.612C39.1242 42.468 39.1682 42.356 39.2562 42.276C39.3522 42.188 39.4842 42.144 39.6522 42.144H40.3722V40.908C40.3722 40.724 40.4242 40.58 40.5282 40.476C40.6402 40.372 40.7882 40.32 40.9722 40.32C41.1562 40.32 41.3042 40.372 41.4162 40.476C41.5282 40.58 41.5842 40.724 41.5842 40.908V42.144H42.7722C42.9402 42.144 43.0682 42.188 43.1562 42.276C43.2522 42.356 43.3002 42.468 43.3002 42.612C43.3002 42.764 43.2522 42.88 43.1562 42.96C43.0682 43.04 42.9402 43.08 42.7722 43.08H41.5842V45.984C41.5842 46.36 41.6602 46.636 41.8122 46.812C41.9722 46.988 42.2122 47.088 42.5322 47.112L42.8682 47.136ZM48.8146 46.524C48.9266 46.524 49.0186 46.568 49.0906 46.656C49.1626 46.744 49.1986 46.856 49.1986 46.992C49.1986 47.224 49.0546 47.42 48.7666 47.58C48.4866 47.74 48.1786 47.864 47.8426 47.952C47.5146 48.04 47.1986 48.084 46.8946 48.084C45.9666 48.084 45.2346 47.816 44.6986 47.28C44.1626 46.736 43.8946 45.996 43.8946 45.06C43.8946 44.46 44.0106 43.928 44.2426 43.464C44.4826 43 44.8146 42.64 45.2386 42.384C45.6706 42.128 46.1586 42 46.7026 42C47.4866 42 48.1066 42.252 48.5626 42.756C49.0186 43.26 49.2466 43.94 49.2466 44.796C49.2466 45.116 49.1026 45.276 48.8146 45.276H45.1066C45.1866 46.516 45.7826 47.136 46.8946 47.136C47.1906 47.136 47.4466 47.096 47.6626 47.016C47.8786 46.936 48.1066 46.832 48.3466 46.704C48.3706 46.688 48.4346 46.656 48.5386 46.608C48.6506 46.552 48.7426 46.524 48.8146 46.524ZM46.7266 42.888C46.2626 42.888 45.8906 43.036 45.6106 43.332C45.3306 43.628 45.1626 44.044 45.1066 44.58H48.2026C48.1786 44.036 48.0386 43.62 47.7826 43.332C47.5346 43.036 47.1826 42.888 46.7266 42.888ZM55.1662 46.524C55.2782 46.524 55.3702 46.568 55.4422 46.656C55.5142 46.744 55.5502 46.856 55.5502 46.992C55.5502 47.224 55.4062 47.42 55.1182 47.58C54.8382 47.74 54.5302 47.864 54.1942 47.952C53.8662 48.04 53.5502 48.084 53.2462 48.084C52.3182 48.084 51.5862 47.816 51.0502 47.28C50.5142 46.736 50.2462 45.996 50.2462 45.06C50.2462 44.46 50.3622 43.928 50.5942 43.464C50.8342 43 51.1662 42.64 51.5902 42.384C52.0222 42.128 52.5102 42 53.0542 42C53.8382 42 54.4582 42.252 54.9142 42.756C55.3702 43.26 55.5982 43.94 55.5982 44.796C55.5982 45.116 55.4542 45.276 55.1662 45.276H51.4582C51.5382 46.516 52.1342 47.136 53.2462 47.136C53.5422 47.136 53.7982 47.096 54.0142 47.016C54.2302 46.936 54.4582 46.832 54.6982 46.704C54.7222 46.688 54.7862 46.656 54.8902 46.608C55.0022 46.552 55.0942 46.524 55.1662 46.524ZM53.0782 42.888C52.6142 42.888 52.2422 43.036 51.9622 43.332C51.6822 43.628 51.5142 44.044 51.4582 44.58H54.5542C54.5302 44.036 54.3902 43.62 54.1342 43.332C53.8862 43.036 53.5342 42.888 53.0782 42.888ZM60.0058 42.024C60.3898 42 60.5818 42.164 60.5818 42.516C60.5818 42.692 60.5378 42.824 60.4498 42.912C60.3618 43 60.2098 43.052 59.9938 43.068L59.6338 43.104C59.1298 43.152 58.7538 43.328 58.5058 43.632C58.2658 43.936 58.1458 44.304 58.1458 44.736V47.484C58.1458 47.676 58.0898 47.82 57.9778 47.916C57.8658 48.012 57.7218 48.06 57.5458 48.06C57.3698 48.06 57.2218 48.012 57.1018 47.916C56.9898 47.82 56.9338 47.676 56.9338 47.484V42.6C56.9338 42.416 56.9898 42.276 57.1018 42.18C57.2218 42.076 57.3698 42.024 57.5458 42.024C57.7058 42.024 57.8378 42.076 57.9418 42.18C58.0538 42.276 58.1098 42.412 58.1098 42.588V43.164C58.2698 42.812 58.5018 42.544 58.8058 42.36C59.1098 42.176 59.4538 42.068 59.8378 42.036L60.0058 42.024ZM63.3097 48.084C62.4937 48.084 61.8257 47.916 61.3057 47.58C61.1617 47.492 61.0577 47.4 60.9937 47.304C60.9377 47.208 60.9097 47.1 60.9097 46.98C60.9097 46.852 60.9457 46.744 61.0177 46.656C61.0897 46.568 61.1817 46.524 61.2937 46.524C61.3977 46.524 61.5617 46.588 61.7857 46.716C62.0257 46.844 62.2577 46.948 62.4817 47.028C62.7137 47.108 63.0017 47.148 63.3457 47.148C63.7297 47.148 64.0297 47.08 64.2457 46.944C64.4617 46.808 64.5697 46.616 64.5697 46.368C64.5697 46.208 64.5257 46.08 64.4377 45.984C64.3577 45.888 64.2137 45.804 64.0057 45.732C63.7977 45.652 63.4897 45.568 63.0817 45.48C62.3777 45.328 61.8697 45.124 61.5577 44.868C61.2537 44.604 61.1017 44.248 61.1017 43.8C61.1017 43.456 61.2017 43.148 61.4017 42.876C61.6017 42.596 61.8777 42.38 62.2297 42.228C62.5817 42.076 62.9817 42 63.4297 42C63.7497 42 64.0617 42.044 64.3657 42.132C64.6697 42.212 64.9377 42.332 65.1697 42.492C65.4337 42.668 65.5657 42.872 65.5657 43.104C65.5657 43.232 65.5257 43.34 65.4457 43.428C65.3737 43.516 65.2857 43.56 65.1817 43.56C65.1097 43.56 65.0377 43.544 64.9657 43.512C64.8937 43.48 64.7977 43.428 64.6777 43.356C64.4617 43.228 64.2577 43.128 64.0657 43.056C63.8817 42.984 63.6497 42.948 63.3697 42.948C63.0337 42.948 62.7617 43.02 62.5537 43.164C62.3537 43.308 62.2537 43.504 62.2537 43.752C62.2537 43.976 62.3457 44.152 62.5297 44.28C62.7217 44.4 63.0777 44.516 63.5977 44.628C64.1337 44.74 64.5537 44.868 64.8577 45.012C65.1617 45.156 65.3777 45.336 65.5057 45.552C65.6417 45.76 65.7097 46.028 65.7097 46.356C65.7097 46.876 65.4897 47.296 65.0497 47.616C64.6177 47.928 64.0377 48.084 63.3097 48.084Z" fill="#454545"/>
</svg>
